<svg width="176" height="90" viewBox="0 0 176 90" fill="none" xmlns="http://www.w3.org/2000/svg">
<path d="M31.578 35.2181C32.964 31.4587 38.2812 31.4587 39.6672 35.2181C41.1289 39.1827 45.2114 41.5398 49.3757 40.8233C53.3244 40.1439 55.983 44.7487 53.4203 47.8287C50.7177 51.0769 50.7177 55.791 53.4203 59.0391C55.983 62.1191 53.3244 66.7239 49.3757 66.0446C45.2114 65.3281 41.1289 67.6852 39.6672 71.6497C38.2812 75.4092 32.964 75.4092 31.578 71.6497C30.1164 67.6852 26.0338 65.3281 21.8696 66.0446C17.9208 66.7239 15.2622 62.1191 17.825 59.0391C20.5276 55.791 20.5276 51.0769 17.825 47.8287C15.2622 44.7487 17.9208 40.1439 21.8696 40.8233C26.0338 41.5398 30.1164 39.1827 31.578 35.2181Z" stroke="#2ECC71" stroke-width="4.45283"/>
<circle cx="35.6226" cy="53.4339" r="6.67924" stroke="#2ECC71" stroke-width="4.45283"/>
<path d="M51.2075 35.6226L53.7138 34.3026C56.526 32.4583 57.932 31.5362 57.8856 30.2187C57.8393 28.9012 56.3728 28.0997 53.4395 26.4966L42.9148 20.7447C39.3365 18.7891 37.5473 17.8113 35.6226 17.8113C33.6979 17.8113 31.9087 18.7891 28.3304 20.7447L17.8058 26.4966C14.8725 28.0997 13.4059 28.9012 13.3596 30.2187C13.3133 31.5362 14.7194 32.4583 17.5315 34.3026L20.0377 35.6226" stroke="#3498DB" stroke-width="4.45283" stroke-linecap="round"/>
<path d="M72.1501 42.591C70.5732 42.591 69.0438 42.382 67.5619 41.964C66.099 41.5271 64.921 40.9666 64.0281 40.2827L65.5955 36.8059C66.4504 37.4328 67.4669 37.9363 68.6448 38.3163C69.8227 38.6963 71.0006 38.8862 72.1786 38.8862C73.4895 38.8862 74.4584 38.6963 75.0854 38.3163C75.7123 37.9173 76.0258 37.3948 76.0258 36.7489C76.0258 36.2739 75.8358 35.8844 75.4558 35.5805C75.0949 35.2575 74.6199 35.001 74.0309 34.811C73.461 34.621 72.682 34.412 71.6941 34.1841C70.1742 33.8231 68.9298 33.4621 67.9608 33.1011C66.9919 32.7402 66.156 32.1607 65.453 31.3628C64.769 30.5648 64.4271 29.5009 64.4271 28.171C64.4271 27.012 64.7405 25.9671 65.3675 25.0362C65.9945 24.0862 66.9349 23.3358 68.1888 22.7848C69.4617 22.2339 71.0101 21.9584 72.834 21.9584C74.1069 21.9584 75.3513 22.1104 76.5673 22.4143C77.7832 22.7183 78.8471 23.1553 79.759 23.7253L78.3341 27.2305C76.4913 26.1856 74.6484 25.6631 72.8055 25.6631C71.5136 25.6631 70.5542 25.8721 69.9272 26.2901C69.3192 26.7081 69.0153 27.259 69.0153 27.943C69.0153 28.6269 69.3667 29.1399 70.0697 29.4819C70.7916 29.8049 71.8841 30.1278 73.347 30.4508C74.8669 30.8118 76.1113 31.1728 77.0802 31.5337C78.0492 31.8947 78.8756 32.4647 79.5596 33.2436C80.2625 34.0226 80.614 35.077 80.614 36.4069C80.614 37.5468 80.291 38.5918 79.6451 39.5417C79.0181 40.4726 78.0682 41.2136 76.7952 41.7646C75.5223 42.3155 73.9739 42.591 72.1501 42.591ZM90.8646 42.477C89.2307 42.477 87.7583 42.1445 86.4474 41.4796C85.1555 40.7956 84.1391 39.8552 83.3981 38.6583C82.6762 37.4613 82.3152 36.1029 82.3152 34.583C82.3152 33.0631 82.6762 31.7047 83.3981 30.5078C84.1391 29.3109 85.1555 28.3799 86.4474 27.715C87.7583 27.031 89.2307 26.6891 90.8646 26.6891C92.4795 26.6891 93.8854 27.031 95.0823 27.715C96.2983 28.3799 97.1817 29.3394 97.7327 30.5933L94.2844 32.4457C93.4864 31.0398 92.337 30.3368 90.8361 30.3368C89.6772 30.3368 88.7178 30.7168 87.9578 31.4767C87.1979 32.2367 86.8179 33.2721 86.8179 34.583C86.8179 35.8939 87.1979 36.9294 87.9578 37.6893C88.7178 38.4493 89.6772 38.8293 90.8361 38.8293C92.356 38.8293 93.5054 38.1263 94.2844 36.7204L97.7327 38.6013C97.1817 39.8172 96.2983 40.7671 95.0823 41.4511C93.8854 42.135 92.4795 42.477 90.8646 42.477ZM109.5 26.6891C111.4 26.6891 112.929 27.259 114.088 28.3989C115.266 29.5389 115.855 31.2298 115.855 33.4716V42.249H111.409V34.1556C111.409 32.9396 111.143 32.0372 110.611 31.4482C110.079 30.8403 109.31 30.5363 108.303 30.5363C107.182 30.5363 106.289 30.8878 105.624 31.5907C104.959 32.2747 104.627 33.3006 104.627 34.6685V42.249H100.181V21.1034H104.627V28.5129C105.216 27.924 105.928 27.4775 106.764 27.1735C107.6 26.8506 108.512 26.6891 109.5 26.6891ZM127.347 42.477C125.732 42.477 124.279 42.1445 122.987 41.4796C121.714 40.7956 120.717 39.8552 119.995 38.6583C119.273 37.4613 118.912 36.1029 118.912 34.583C118.912 33.0631 119.273 31.7047 119.995 30.5078C120.717 29.3109 121.714 28.3799 122.987 27.715C124.279 27.031 125.732 26.6891 127.347 26.6891C128.962 26.6891 130.406 27.031 131.679 27.715C132.952 28.3799 133.949 29.3109 134.671 30.5078C135.393 31.7047 135.754 33.0631 135.754 34.583C135.754 36.1029 135.393 37.4613 134.671 38.6583C133.949 39.8552 132.952 40.7956 131.679 41.4796C130.406 42.1445 128.962 42.477 127.347 42.477ZM127.347 38.8293C128.487 38.8293 129.418 38.4493 130.14 37.6893C130.881 36.9104 131.252 35.8749 131.252 34.583C131.252 33.2911 130.881 32.2652 130.14 31.5052C129.418 30.7263 128.487 30.3368 127.347 30.3368C126.207 30.3368 125.267 30.7263 124.526 31.5052C123.785 32.2652 123.415 33.2911 123.415 34.583C123.415 35.8749 123.785 36.9104 124.526 37.6893C125.267 38.4493 126.207 38.8293 127.347 38.8293ZM138.726 21.1034H143.172V42.249H138.726V21.1034ZM153.482 26.6891C155.856 26.6891 157.68 27.259 158.953 28.3989C160.226 29.5199 160.863 31.2203 160.863 33.5001V42.249H156.702V40.3397C155.866 41.7646 154.308 42.477 152.028 42.477C150.85 42.477 149.824 42.2775 148.95 41.8785C148.095 41.4796 147.44 40.9286 146.984 40.2257C146.528 39.5227 146.3 38.7248 146.3 37.8318C146.3 36.4069 146.832 35.286 147.896 34.469C148.979 33.6521 150.641 33.2436 152.883 33.2436H156.417C156.417 32.2747 156.122 31.5337 155.533 31.0208C154.945 30.4888 154.061 30.2228 152.883 30.2228C152.066 30.2228 151.259 30.3558 150.461 30.6218C149.682 30.8688 149.017 31.2108 148.466 31.6477L146.87 28.5414C147.706 27.9525 148.703 27.4965 149.862 27.1735C151.04 26.8506 152.247 26.6891 153.482 26.6891ZM153.14 39.4847C153.9 39.4847 154.574 39.3137 155.163 38.9717C155.752 38.6108 156.17 38.0883 156.417 37.4043V35.837H153.368C151.544 35.837 150.632 36.4354 150.632 37.6323C150.632 38.2023 150.85 38.6583 151.287 39.0002C151.743 39.3232 152.361 39.4847 153.14 39.4847ZM169.132 28.9404C169.664 28.1995 170.377 27.639 171.27 27.259C172.182 26.8791 173.227 26.6891 174.405 26.6891V30.7928C173.911 30.7548 173.578 30.7358 173.407 30.7358C172.134 30.7358 171.137 31.0968 170.415 31.8187C169.693 32.5217 169.332 33.5856 169.332 35.0105V42.249H164.886V26.917H169.132V28.9404Z" fill="#0E0E0E"/>
<path d="M81.0414 64.3707V68.0754H65.5955V48.1267H80.671V51.8315H70.1837V56.1632H79.4455V59.754H70.1837V64.3707H81.0414ZM93.7202 52.5154C95.6201 52.5154 97.1495 53.0854 98.3084 54.2253C99.4863 55.3653 100.075 57.0561 100.075 59.298V68.0754H95.6296V59.9819C95.6296 58.766 95.3636 57.8636 94.8316 57.2746C94.2997 56.6667 93.5302 56.3627 92.5233 56.3627C91.4024 56.3627 90.5094 56.7142 89.8445 57.4171C89.1795 58.1011 88.847 59.127 88.847 60.4949V68.0754H84.4013V52.7434H88.6475V54.5388C89.2365 53.8929 89.968 53.3989 90.8419 53.0569C91.7158 52.6959 92.6753 52.5154 93.7202 52.5154ZM120.089 52.7434V65.5106C120.089 68.3224 119.357 70.4123 117.894 71.7802C116.431 73.1481 114.294 73.832 111.482 73.832C110 73.832 108.594 73.6515 107.264 73.2906C105.934 72.9296 104.833 72.4071 103.959 71.7232L105.725 68.5314C106.371 69.0633 107.188 69.4813 108.176 69.7853C109.164 70.1083 110.152 70.2698 111.14 70.2698C112.679 70.2698 113.809 69.9183 114.531 69.2153C115.272 68.5314 115.643 67.4864 115.643 66.0805V65.4251C114.484 66.698 112.869 67.3345 110.798 67.3345C109.392 67.3345 108.1 67.0305 106.922 66.4225C105.763 65.7956 104.842 64.9216 104.158 63.8007C103.474 62.6798 103.132 61.3879 103.132 59.925C103.132 58.4621 103.474 57.1701 104.158 56.0492C104.842 54.9283 105.763 54.0638 106.922 53.4559C108.1 52.8289 109.392 52.5154 110.798 52.5154C113.021 52.5154 114.712 53.2469 115.871 54.7098V52.7434H120.089ZM111.682 63.6867C112.859 63.6867 113.819 63.3447 114.56 62.6608C115.32 61.9578 115.7 61.0459 115.7 59.925C115.7 58.804 115.32 57.9016 114.56 57.2176C113.819 56.5147 112.859 56.1632 111.682 56.1632C110.504 56.1632 109.535 56.5147 108.775 57.2176C108.015 57.9016 107.635 58.804 107.635 59.925C107.635 61.0459 108.015 61.9578 108.775 62.6608C109.535 63.3447 110.504 63.6867 111.682 63.6867ZM124.226 52.7434H128.672V68.0754H124.226V52.7434ZM126.449 50.6061C125.632 50.6061 124.967 50.3686 124.454 49.8936C123.941 49.4187 123.685 48.8297 123.685 48.1267C123.685 47.4238 123.941 46.8348 124.454 46.3599C124.967 45.8849 125.632 45.6474 126.449 45.6474C127.266 45.6474 127.931 45.8754 128.444 46.3314C128.957 46.7873 129.213 47.3573 129.213 48.0412C129.213 48.7822 128.957 49.3997 128.444 49.8936C127.931 50.3686 127.266 50.6061 126.449 50.6061ZM142.117 52.5154C144.017 52.5154 145.546 53.0854 146.705 54.2253C147.883 55.3653 148.472 57.0561 148.472 59.298V68.0754H144.026V59.9819C144.026 58.766 143.76 57.8636 143.228 57.2746C142.696 56.6667 141.927 56.3627 140.92 56.3627C139.799 56.3627 138.906 56.7142 138.241 57.4171C137.576 58.1011 137.244 59.127 137.244 60.4949V68.0754H132.798V52.7434H137.044V54.5388C137.633 53.8929 138.365 53.3989 139.239 53.0569C140.112 52.6959 141.072 52.5154 142.117 52.5154ZM167.687 60.4664C167.687 60.5234 167.659 60.9224 167.602 61.6633H156.003C156.212 62.6133 156.706 63.3637 157.485 63.9147C158.264 64.4657 159.233 64.7411 160.392 64.7411C161.19 64.7411 161.893 64.6271 162.501 64.3992C163.128 64.1522 163.707 63.7722 164.239 63.2592L166.604 65.8241C165.16 67.4769 163.052 68.3034 160.278 68.3034C158.549 68.3034 157.019 67.9709 155.69 67.306C154.36 66.622 153.334 65.6816 152.612 64.4846C151.89 63.2877 151.529 61.9293 151.529 60.4094C151.529 58.9085 151.88 57.5596 152.583 56.3627C153.305 55.1468 154.284 54.2063 155.519 53.5414C156.772 52.8574 158.169 52.5154 159.708 52.5154C161.209 52.5154 162.567 52.8384 163.783 53.4844C164.999 54.1303 165.949 55.0613 166.633 56.2772C167.336 57.4741 167.687 58.8705 167.687 60.4664ZM159.736 55.8782C158.729 55.8782 157.884 56.1632 157.2 56.7332C156.516 57.3031 156.098 58.0821 155.946 59.07H163.498C163.346 58.1011 162.928 57.3316 162.244 56.7617C161.56 56.1727 160.724 55.8782 159.736 55.8782Z" fill="#0E0E0E"/>
</svg>
